<?xml version="1.0" standalone="no"?>
<!DOCTYPE svg PUBLIC "-//W3C//DTD SVG 20010904//EN"
 "http://www.w3.org/TR/2001/REC-SVG-20010904/DTD/svg10.dtd">
<svg version="1.0" xmlns="http://www.w3.org/2000/svg"
 width="512.000000pt" height="512.000000pt" viewBox="0 0 512.000000 512.000000"
 preserveAspectRatio="xMidYMid meet">
<metadata>
Created by potrace 1.14, written by Peter Selinger 2001-2017
</metadata>
<g transform="translate(0.000000,512.000000) scale(0.100000,-0.100000)"
fill="#000000" stroke="none">
<path d="M493 4369 c-79 -25 -161 -97 -200 -177 l-28 -57 0 -1335 0 -1335 23
-42 c12 -23 22 -45 22 -48 0 -3 -28 -5 -63 -5 -115 0 -182 -34 -222 -114 -27
-55 -31 -98 -14 -178 36 -169 177 -305 348 -338 35 -6 567 -10 1527 -10 l1473
0 26 23 c32 27 37 78 10 107 -17 19 -38 20 -1519 22 l-1501 3 -46 21 c-59 28
-115 78 -140 125 -29 57 -43 133 -29 158 l11 21 892 -2 892 -3 6 -40 c11 -79
71 -153 148 -180 65 -22 837 -22 902 0 79 28 149 117 149 190 l0 35 888 0
c505 0 893 -4 901 -9 21 -13 15 -97 -11 -150 -42 -87 -116 -142 -219 -161 -30
-6 -269 -10 -565 -10 l-513 0 -21 -27 c-26 -33 -20 -68 16 -101 l25 -22 523 0
c308 0 545 4 577 10 169 32 312 170 348 338 17 81 13 123 -15 180 -37 75 -90
104 -201 110 -45 3 -83 6 -83 9 0 2 10 23 23 46 l22 42 0 1335 0 1335 -28 57
c-40 82 -120 152 -204 178 -64 20 -85 20 -2067 19 -1959 0 -2002 -1 -2063 -20z
m4112 -151 c41 -22 71 -56 90 -100 13 -33 15 -184 15 -1316 l0 -1278 -25 -50
c-14 -28 -40 -59 -62 -74 l-37 -25 -2026 0 -2026 0 -36 24 c-19 13 -46 40 -59
59 l-24 36 -3 1290 c-3 1419 -6 1340 57 1400 61 59 -69 55 2106 53 1840 -2
2002 -3 2030 -19z m-1745 -3032 c0 -59 18 -56 -357 -56 l-344 0 -24 25 c-14
13 -25 31 -25 40 0 13 43 15 375 15 l375 0 0 -24z"/>
<path d="M695 4016 c-40 -17 -85 -63 -101 -103 -10 -22 -14 -78 -14 -178 0
-132 2 -147 20 -165 33 -33 75 -30 108 6 20 23 22 34 22 153 0 85 4 131 12
139 9 9 103 12 360 12 l348 0 0 -1080 0 -1080 -344 0 c-300 0 -347 2 -360 16
-14 14 -16 99 -16 789 0 721 -1 774 -17 794 -27 32 -73 37 -106 11 l-27 -21 0
-797 0 -797 23 -40 c12 -21 42 -53 65 -70 l44 -30 1848 0 1848 0 44 30 c25 18
52 49 66 75 l22 45 -2 1091 -3 1090 -24 36 c-13 19 -40 46 -59 59 l-36 24
-1845 2 c-1515 2 -1851 0 -1876 -11z m3683 -148 c9 -9 12 -259 12 -1064 l0
-1053 -22 -15 c-20 -14 -168 -16 -1390 -16 l-1368 0 0 1080 0 1080 1378 0
c1058 0 1381 -3 1390 -12z"/>
<path d="M1805 3635 c-14 -13 -25 -36 -25 -50 0 -14 11 -37 25 -50 23 -24 28
-25 170 -25 142 0 147 1 170 25 14 13 25 36 25 50 0 14 -11 37 -25 50 -23 24
-28 25 -170 25 -142 0 -147 -1 -170 -25z"/>
<path d="M2392 3637 c-31 -33 -29 -80 4 -106 27 -21 32 -21 864 -21 832 0 837
0 864 21 34 27 36 77 3 107 l-23 22 -845 0 -846 0 -21 -23z"/>
<path d="M1824 3338 c-22 -10 -44 -47 -44 -72 0 -7 9 -25 21 -40 l20 -26 925
0 c911 0 924 0 944 20 30 30 27 83 -6 109 -27 21 -31 21 -933 20 -602 0 -913
-4 -927 -11z"/>
<path d="M1843 3033 c-27 -5 -63 -48 -63 -75 0 -11 13 -33 29 -49 l29 -29 132
0 c165 0 201 15 200 83 -1 29 -21 54 -54 67 -26 10 -227 12 -273 3z"/>
<path d="M2413 3026 c-37 -17 -51 -54 -37 -95 16 -44 46 -52 196 -49 126 3
139 5 159 25 29 29 29 77 0 106 -20 20 -33 22 -154 25 -98 2 -140 -1 -164 -12z"/>
<path d="M2953 3033 c-27 -5 -63 -48 -63 -75 0 -11 13 -33 29 -49 l29 -29 349
0 c259 0 354 3 373 13 30 15 45 54 36 91 -13 52 -41 56 -403 55 -180 -1 -338
-4 -350 -6z"/>
<path d="M1803 2694 c-20 -20 -24 -31 -19 -57 11 -60 31 -67 193 -67 139 0
145 1 168 25 30 30 32 64 4 99 l-20 26 -150 0 c-148 0 -150 0 -176 -26z"/>
<path d="M1811 2393 c-32 -27 -37 -73 -11 -106 l21 -27 384 0 c357 0 384 1
406 18 33 27 30 78 -5 109 l-27 23 -373 0 c-341 0 -376 -2 -395 -17z"/>
<path d="M2872 2403 c-15 -6 -42 -56 -42 -78 0 -9 11 -27 25 -40 23 -24 28
-25 174 -25 l150 0 20 26 c28 35 26 69 -4 99 -23 24 -28 25 -167 24 -79 0
-149 -3 -156 -6z"/>
<path d="M1830 2087 c-13 -7 -31 -25 -40 -40 -13 -24 -13 -30 0 -54 31 -55 -5
-53 973 -50 l909 2 19 24 c24 30 24 72 0 102 l-19 24 -909 2 c-714 2 -913 0
-933 -10z"/>
<path d="M987 3648 c-24 -19 -36 -59 -25 -87 15 -42 37 -50 131 -51 80 0 90 2
112 25 14 13 25 36 25 50 0 14 -11 37 -25 50 -22 23 -32 25 -113 25 -55 0 -94
-5 -105 -12z"/>
<path d="M985 3328 c-21 -19 -28 -33 -27 -59 1 -56 28 -69 137 -69 89 0 95 1
114 26 26 33 27 65 2 95 -17 21 -29 24 -108 27 -83 4 -92 2 -118 -20z"/>
<path d="M976 3011 c-25 -27 -24 -78 2 -104 17 -17 37 -22 92 -25 84 -5 113 1
140 30 26 28 25 58 -1 92 -20 25 -25 26 -118 26 -83 0 -100 -3 -115 -19z"/>
<path d="M980 2700 c-33 -33 -30 -75 6 -107 22 -20 36 -23 110 -23 77 0 87 2
109 25 14 13 25 36 25 50 0 14 -11 37 -25 50 -22 23 -32 25 -115 25 -77 0 -93
-3 -110 -20z"/>
<path d="M986 2388 c-36 -33 -39 -75 -6 -108 17 -17 33 -20 114 -20 90 0 96 1
115 26 28 35 26 69 -4 99 -22 23 -32 25 -109 25 -74 0 -88 -3 -110 -22z"/>
<path d="M1000 2087 c-38 -19 -54 -60 -38 -94 18 -38 53 -53 125 -53 97 0 142
25 142 80 0 32 -18 56 -53 70 -38 14 -146 12 -176 -3z"/>
</g>
</svg>
